<mxfile host="app.diagrams.net" agent="Mozilla/5.0 (Macintosh; Intel Mac OS X 10_15_7) AppleWebKit/605.1.15 (KHTML, like Gecko) Version/18.5 Safari/605.1.15" version="28.1.1">
  <diagram name="Page-1" id="b0YRxItXDvLH9EODu1eP">
    <mxGraphModel dx="1306" dy="905" grid="1" gridSize="10" guides="1" tooltips="1" connect="1" arrows="1" fold="1" page="1" pageScale="1" pageWidth="850" pageHeight="1100" background="none" math="0" shadow="0">
      <root>
        <mxCell id="0" />
        <mxCell id="1" parent="0" />
        <mxCell id="Xrlb10NCsGpD5aMp_2lD-10" value="" style="edgeStyle=orthogonalEdgeStyle;rounded=0;orthogonalLoop=1;jettySize=auto;html=1;" parent="1" source="Xrlb10NCsGpD5aMp_2lD-2" target="Xrlb10NCsGpD5aMp_2lD-9" edge="1">
          <mxGeometry relative="1" as="geometry" />
        </mxCell>
        <mxCell id="Xrlb10NCsGpD5aMp_2lD-2" value="Start" style="strokeWidth=2;html=1;shape=mxgraph.flowchart.start_1;whiteSpace=wrap;" parent="1" vertex="1">
          <mxGeometry x="390" y="50" width="100" height="60" as="geometry" />
        </mxCell>
        <mxCell id="Xrlb10NCsGpD5aMp_2lD-12" value="" style="edgeStyle=orthogonalEdgeStyle;rounded=0;orthogonalLoop=1;jettySize=auto;html=1;" parent="1" source="Xrlb10NCsGpD5aMp_2lD-9" target="Xrlb10NCsGpD5aMp_2lD-11" edge="1">
          <mxGeometry relative="1" as="geometry" />
        </mxCell>
        <mxCell id="Xrlb10NCsGpD5aMp_2lD-9" value="Parse midi file using javax.sound.midi to internal data structure" style="whiteSpace=wrap;html=1;strokeWidth=2;" parent="1" vertex="1">
          <mxGeometry x="380" y="190" width="120" height="60" as="geometry" />
        </mxCell>
        <mxCell id="Xrlb10NCsGpD5aMp_2lD-14" value="" style="edgeStyle=orthogonalEdgeStyle;rounded=0;orthogonalLoop=1;jettySize=auto;html=1;" parent="1" source="Xrlb10NCsGpD5aMp_2lD-11" target="Xrlb10NCsGpD5aMp_2lD-13" edge="1">
          <mxGeometry relative="1" as="geometry" />
        </mxCell>
        <mxCell id="Xrlb10NCsGpD5aMp_2lD-11" value="Process parsed data to change the visuals of the score" style="whiteSpace=wrap;html=1;strokeWidth=2;" parent="1" vertex="1">
          <mxGeometry x="380" y="330" width="120" height="60" as="geometry" />
        </mxCell>
        <mxCell id="Xrlb10NCsGpD5aMp_2lD-16" value="" style="edgeStyle=orthogonalEdgeStyle;rounded=0;orthogonalLoop=1;jettySize=auto;html=1;" parent="1" source="Xrlb10NCsGpD5aMp_2lD-13" target="Xrlb10NCsGpD5aMp_2lD-15" edge="1">
          <mxGeometry relative="1" as="geometry" />
        </mxCell>
        <mxCell id="NQZS6yc1OcZh38oiGsK2-4" style="edgeStyle=orthogonalEdgeStyle;rounded=0;orthogonalLoop=1;jettySize=auto;html=1;" edge="1" parent="1" source="Xrlb10NCsGpD5aMp_2lD-13" target="NQZS6yc1OcZh38oiGsK2-3">
          <mxGeometry relative="1" as="geometry" />
        </mxCell>
        <mxCell id="Xrlb10NCsGpD5aMp_2lD-13" value="Convert internal data structure to musicxml file using JAXB" style="whiteSpace=wrap;html=1;strokeWidth=2;" parent="1" vertex="1">
          <mxGeometry x="380" y="470" width="120" height="60" as="geometry" />
        </mxCell>
        <mxCell id="Xrlb10NCsGpD5aMp_2lD-15" value="End" style="ellipse;whiteSpace=wrap;html=1;strokeWidth=2;" parent="1" vertex="1">
          <mxGeometry x="390" y="600" width="100" height="50" as="geometry" />
        </mxCell>
        <mxCell id="NQZS6yc1OcZh38oiGsK2-2" style="edgeStyle=orthogonalEdgeStyle;rounded=0;orthogonalLoop=1;jettySize=auto;html=1;" edge="1" parent="1" source="NQZS6yc1OcZh38oiGsK2-1" target="Xrlb10NCsGpD5aMp_2lD-9">
          <mxGeometry relative="1" as="geometry" />
        </mxCell>
        <mxCell id="NQZS6yc1OcZh38oiGsK2-1" value=".midi file" style="strokeWidth=2;html=1;shape=mxgraph.flowchart.document2;whiteSpace=wrap;size=0.25;" vertex="1" parent="1">
          <mxGeometry x="180" y="190" width="100" height="60" as="geometry" />
        </mxCell>
        <mxCell id="NQZS6yc1OcZh38oiGsK2-3" value=".musicxml file" style="strokeWidth=2;html=1;shape=mxgraph.flowchart.document2;whiteSpace=wrap;size=0.25;" vertex="1" parent="1">
          <mxGeometry x="600" y="470" width="100" height="60" as="geometry" />
        </mxCell>
      </root>
    </mxGraphModel>
  </diagram>
</mxfile>
